# Blender 4.1.1
# www.blender.org
mtllib dice-tray.mtl
o Cube
v -8.972222 -1.250000 8.972222
v -9.025000 -1.750000 9.025000
v -9.025000 -1.662500 9.500000
v -8.972222 -1.250000 -8.972222
v -9.500000 -1.662500 9.025000
v -9.025001 -1.738310 9.262189
v 8.972222 -1.250000 8.972222
v -9.262189 -1.738310 9.025001
v -9.252151 -1.726956 9.252151
v 8.972222 -1.250000 -8.972222
v -9.262189 -1.662500 9.436543
v -9.025001 -1.706193 9.436543
v -9.252151 -1.704344 9.374901
v -9.436543 -1.706193 9.025001
v -9.436543 -1.662500 9.262189
v -9.374901 -1.704344 9.252151
v -9.025000 1.662500 9.500000
v -9.025000 1.750000 9.025000
v -9.500000 1.662500 9.025000
v -9.025001 1.706193 9.436543
v -9.262189 1.662500 9.436543
v -9.252151 1.704344 9.374901
v -9.262189 1.738310 9.025001
v -9.025001 1.738310 9.262189
v -9.252151 1.726956 9.252151
v -9.436543 1.662500 9.262189
v -9.436543 1.706193 9.025001
v -9.374901 1.704344 9.252151
v -9.025000 -1.750000 -9.025000
v -9.500000 -1.662500 -9.025000
v -9.025000 -1.662500 -9.500000
v -9.262189 -1.738310 -9.025001
v -9.025001 -1.738310 -9.262189
v -9.252151 -1.726956 -9.252151
v -9.436543 -1.662500 -9.262189
v -9.436543 -1.706193 -9.025001
v -9.374901 -1.704344 -9.252151
v -9.025001 -1.706193 -9.436543
v -9.262189 -1.662500 -9.436543
v -9.252151 -1.704344 -9.374901
v -9.025000 1.750000 -9.025000
v -9.025000 1.662500 -9.500000
v -9.500000 1.662500 -9.025000
v -9.025001 1.738310 -9.262189
v -9.262189 1.738310 -9.025001
v -9.252151 1.726956 -9.252151
v -9.262189 1.662500 -9.436543
v -9.025001 1.706193 -9.436543
v -9.252151 1.704344 -9.374901
v -9.436543 1.706193 -9.025001
v -9.436543 1.662500 -9.262189
v -9.374901 1.704344 -9.252151
v 9.025000 -1.750000 9.025000
v 9.500000 -1.662500 9.025000
v 9.025000 -1.662500 9.500000
v 9.262189 -1.738310 9.025001
v 9.025001 -1.738310 9.262189
v 9.252151 -1.726956 9.252151
v 9.436543 -1.662500 9.262189
v 9.436543 -1.706193 9.025001
v 9.374901 -1.704344 9.252151
v 9.025001 -1.706193 9.436543
v 9.262189 -1.662500 9.436543
v 9.252151 -1.704344 9.374901
v 9.025000 1.750000 9.025000
v 9.025000 1.662500 9.500000
v 9.500000 1.662500 9.025000
v 9.025001 1.738310 9.262189
v 9.262189 1.738310 9.025001
v 9.252151 1.726956 9.252151
v 9.262189 1.662500 9.436543
v 9.025001 1.706193 9.436543
v 9.252151 1.704344 9.374901
v 9.436543 1.706193 9.025001
v 9.436543 1.662500 9.262189
v 9.374901 1.704344 9.252151
v 9.025000 -1.750000 -9.025000
v 9.025000 -1.662500 -9.500000
v 9.500000 -1.662500 -9.025000
v 9.025001 -1.738310 -9.262189
v 9.262189 -1.738310 -9.025001
v 9.252151 -1.726956 -9.252151
v 9.262189 -1.662500 -9.436543
v 9.025001 -1.706193 -9.436543
v 9.252151 -1.704344 -9.374901
v 9.436543 -1.706193 -9.025001
v 9.436543 -1.662500 -9.262189
v 9.374901 -1.704344 -9.252151
v 9.025000 1.750000 -9.025000
v 9.500000 1.662500 -9.025000
v 9.025000 1.662500 -9.500000
v 9.262189 1.738310 -9.025001
v 9.025001 1.738310 -9.262189
v 9.252151 1.726956 -9.252151
v 9.436543 1.662500 -9.262189
v 9.436543 1.706193 -9.025001
v 9.374901 1.704344 -9.252151
v 9.025001 1.706193 -9.436543
v 9.262189 1.662500 -9.436543
v 9.252151 1.704344 -9.374901
v -8.972222 1.750000 8.972222
v 8.972222 1.750000 -8.972222
v -8.972222 1.750000 -8.972222
v 8.972222 1.750000 8.972222
vn -0.0000 -0.0000 1.0000
vn 1.0000 -0.0000 -0.0000
vn -0.0000 1.0000 -0.0000
vn -1.0000 -0.0000 -0.0000
vn -0.0000 -0.0000 -1.0000
vn -0.0506 -0.9974 0.0506
vn -0.0571 -0.9819 0.1809
vn -0.1513 -0.8216 0.5496
vn -0.4502 -0.7712 0.4502
vn -0.5496 -0.8216 0.1513
vn -0.1809 -0.9819 0.0571
vn -0.1783 -0.9677 0.1783
vn -0.1513 0.8216 0.5496
vn -0.0571 0.9818 0.1809
vn -0.0506 0.9974 0.0506
vn -0.1809 0.9818 0.0571
vn -0.5496 0.8216 0.1513
vn -0.4502 0.7712 0.4502
vn -0.1783 0.9677 0.1783
vn -0.0506 -0.9974 -0.0506
vn -0.1809 -0.9819 -0.0571
vn -0.5496 -0.8216 -0.1513
vn -0.4502 -0.7712 -0.4502
vn -0.1513 -0.8216 -0.5496
vn -0.0571 -0.9819 -0.1809
vn -0.1783 -0.9677 -0.1783
vn -0.0506 0.9974 -0.0506
vn -0.0571 0.9818 -0.1809
vn -0.1513 0.8216 -0.5496
vn -0.4502 0.7712 -0.4502
vn -0.5496 0.8216 -0.1513
vn -0.1809 0.9818 -0.0571
vn -0.1783 0.9677 -0.1783
vn 0.0506 -0.9974 0.0506
vn 0.1809 -0.9819 0.0571
vn 0.5496 -0.8216 0.1513
vn 0.4502 -0.7712 0.4502
vn 0.1513 -0.8216 0.5496
vn 0.0571 -0.9819 0.1809
vn 0.1783 -0.9677 0.1783
vn 0.0506 0.9974 0.0506
vn 0.0571 0.9818 0.1809
vn 0.1513 0.8216 0.5496
vn 0.4502 0.7712 0.4502
vn 0.5496 0.8216 0.1513
vn 0.1809 0.9818 0.0571
vn 0.1783 0.9677 0.1783
vn 0.0506 -0.9974 -0.0506
vn 0.0571 -0.9819 -0.1809
vn 0.1513 -0.8216 -0.5496
vn 0.4502 -0.7712 -0.4502
vn 0.5496 -0.8216 -0.1513
vn 0.1809 -0.9819 -0.0571
vn 0.1783 -0.9677 -0.1783
vn 0.0506 0.9974 -0.0506
vn 0.1809 0.9818 -0.0571
vn 0.5496 0.8216 -0.1513
vn 0.4502 0.7712 -0.4502
vn 0.1513 0.8216 -0.5496
vn 0.0571 0.9818 -0.1809
vn 0.1783 0.9677 -0.1783
vn -0.0492 -0.9988 -0.0000
vn -0.1812 -0.9835 -0.0000
vn -0.5671 -0.8236 -0.0000
vn -0.2584 -0.0000 0.9660
vn -0.7071 -0.0000 0.7071
vn -0.9660 -0.0000 0.2585
vn -0.0492 0.9988 -0.0000
vn -0.1812 0.9835 -0.0000
vn -0.5671 0.8236 -0.0000
vn -0.2584 -0.0000 -0.9660
vn -0.7071 -0.0000 -0.7071
vn -0.9660 -0.0000 -0.2585
vn -0.0000 -0.9988 -0.0492
vn -0.0000 -0.9835 -0.1812
vn -0.0000 -0.8236 -0.5671
vn -0.0000 0.9988 -0.0492
vn -0.0000 0.9835 -0.1812
vn -0.0000 0.8236 -0.5671
vn 0.9660 -0.0000 -0.2585
vn 0.7071 -0.0000 -0.7071
vn 0.2584 -0.0000 -0.9660
vn 0.0492 -0.9988 -0.0000
vn 0.1812 -0.9835 -0.0000
vn 0.5671 -0.8236 -0.0000
vn 0.0492 0.9988 -0.0000
vn 0.1812 0.9835 -0.0000
vn 0.5671 0.8236 -0.0000
vn 0.2584 -0.0000 0.9660
vn 0.7071 -0.0000 0.7071
vn 0.9660 -0.0000 0.2585
vn -0.0000 -0.9988 0.0492
vn -0.0000 -0.9835 0.1812
vn -0.0000 -0.8236 0.5671
vn -0.0000 0.9988 0.0492
vn -0.0000 0.9835 0.1812
vn -0.0000 0.8236 0.5671
vn -0.0000 -1.0000 -0.0000
vt 0.381250 0.756250
vt 0.618750 0.756250
vt 0.618750 0.993750
vt 0.381250 0.993750
vt 0.381250 0.506250
vt 0.618750 0.506250
vt 0.618750 0.743750
vt 0.381250 0.743750
vt 0.868750 0.506250
vt 0.868750 0.743750
vt 0.631250 0.743750
vt 0.631944 0.743056
vt 0.868056 0.743056
vt 0.868056 0.506945
vt 0.631250 0.506250
vt 0.631944 0.506944
vt 0.381250 0.006250
vt 0.618750 0.006250
vt 0.618750 0.243750
vt 0.381250 0.243750
vt 0.381250 0.256250
vt 0.618750 0.256250
vt 0.618750 0.493750
vt 0.381250 0.493750
vt 0.131250 0.743750
vt 0.131250 0.746871
vt 0.128261 0.746739
vt 0.128129 0.743750
vt 0.131250 0.750000
vt 0.128261 0.750000
vt 0.381250 1.000000
vt 0.375000 0.996739
vt 0.375000 0.993750
vt 0.381250 0.000000
vt 0.381250 0.003129
vt 0.375000 0.003261
vt 0.375000 0.000000
vt 0.375000 0.006250
vt 0.125000 0.743750
vt 0.125000 0.746739
vt 0.621871 0.993750
vt 0.621739 1.000000
vt 0.618750 1.000000
vt 0.625000 0.993750
vt 0.625000 1.000000
vt 0.875000 0.743750
vt 0.875000 0.746739
vt 0.868750 0.750000
vt 0.625000 0.006250
vt 0.621871 0.006250
vt 0.621739 0.003261
vt 0.625000 0.003261
vt 0.618750 0.003129
vt 0.618750 0.000000
vt 0.621739 0.000000
vt 0.131250 0.506250
vt 0.128129 0.506250
vt 0.128261 0.503261
vt 0.131250 0.503129
vt 0.125000 0.506250
vt 0.125000 0.503261
vt 0.381250 0.246871
vt 0.375000 0.246739
vt 0.375000 0.243750
vt 0.381250 0.253129
vt 0.375000 0.253261
vt 0.375000 0.256250
vt 0.131250 0.500000
vt 0.128261 0.500000
vt 0.868750 0.500000
vt 0.875000 0.503261
vt 0.875000 0.506250
vt 0.625000 0.256250
vt 0.621871 0.256250
vt 0.621739 0.253261
vt 0.625000 0.250000
vt 0.618750 0.253129
vt 0.618750 0.246871
vt 0.621739 0.246739
vt 0.621871 0.243750
vt 0.625000 0.243750
vt 0.625000 0.246739
vt 0.621739 0.248354
vt 0.368750 0.743750
vt 0.371871 0.743750
vt 0.371739 0.746739
vt 0.368750 0.746871
vt 0.378129 0.743750
vt 0.378261 0.746739
vt 0.381250 0.746871
vt 0.381250 0.753129
vt 0.375000 0.753261
vt 0.375000 0.756250
vt 0.368750 0.750000
vt 0.371739 0.750000
vt 0.373354 0.746739
vt 0.631250 0.750000
vt 0.628261 0.750000
vt 0.628129 0.743750
vt 0.625000 0.756250
vt 0.621871 0.756250
vt 0.621739 0.753261
vt 0.625000 0.753261
vt 0.618750 0.753129
vt 0.618750 0.746871
vt 0.621739 0.746739
vt 0.621871 0.743750
vt 0.621739 0.751646
vt 0.368750 0.506250
vt 0.368750 0.503129
vt 0.371739 0.503261
vt 0.371871 0.506250
vt 0.368750 0.500000
vt 0.371739 0.500000
vt 0.381250 0.496871
vt 0.375000 0.496739
vt 0.375000 0.493750
vt 0.381250 0.503129
vt 0.378261 0.503261
vt 0.378129 0.506250
vt 0.373354 0.503261
vt 0.628129 0.506250
vt 0.628261 0.500000
vt 0.631250 0.500000
vt 0.621871 0.506250
vt 0.621739 0.503261
vt 0.618750 0.503129
vt 0.618750 0.496871
vt 0.621739 0.496739
vt 0.621871 0.493750
vt 0.625000 0.493750
vt 0.625000 0.496739
vt 0.621739 0.498354
vt 0.589286 0.000000
vt 0.375000 0.250000
vt 0.589286 0.250000
vt 0.375000 0.500000
vt 0.589286 0.500000
vt 0.375000 0.750000
vt 0.589286 0.750000
vt 0.375000 1.000000
vt 0.589286 1.000000
vt 0.125000 0.500000
vt 0.125000 0.750000
s 0
f 55/1/1 66/2/1 17/3/1 3/4/1
f 79/5/2 90/6/2 67/7/2 54/8/2
f 41/9/3 18/10/3 65/11/3 104/12/3 101/13/3 103/14/3
f 65/11/3 89/15/3 41/9/3 103/14/3 102/16/3 104/12/3
f 5/17/4 19/18/4 43/19/4 30/20/4
f 31/21/5 42/22/5 91/23/5 78/24/5
f 2/25/6 6/26/6 9/27/6 8/28/6
f 6/26/7 12/29/7 13/30/7 9/27/7
f 3/4/8 11/31/8 13/32/8 12/33/8
f 11/34/9 15/35/9 16/36/9 13/37/9
f 5/17/10 14/38/10 16/36/10 15/35/10
f 14/39/11 8/28/11 9/27/11 16/40/11
f 9/27/12 13/30/12 16/40/12
f 17/3/13 20/41/13 22/42/13 21/43/13
f 20/41/14 24/44/14 25/45/14 22/42/14
f 18/10/15 23/46/15 25/47/15 24/48/15
f 23/49/16 27/50/16 28/51/16 25/52/16
f 19/18/17 26/53/17 28/51/17 27/50/17
f 26/53/18 21/54/18 22/55/18 28/51/18
f 22/55/19 25/52/19 28/51/19
f 29/56/20 32/57/20 34/58/20 33/59/20
f 32/57/21 36/60/21 37/61/21 34/58/21
f 30/20/22 35/62/22 37/63/22 36/64/22
f 35/62/23 39/65/23 40/66/23 37/63/23
f 31/21/24 38/67/24 40/66/24 39/65/24
f 38/68/25 33/59/25 34/58/25 40/69/25
f 34/58/26 37/61/26 40/69/26
f 41/9/27 44/70/27 46/71/27 45/72/27
f 44/73/28 48/74/28 49/75/28 46/76/28
f 42/22/29 47/77/29 49/75/29 48/74/29
f 47/77/30 51/78/30 52/79/30 49/75/30
f 43/19/31 50/80/31 52/79/31 51/78/31
f 50/80/32 45/81/32 46/82/32 52/79/32
f 46/82/33 49/83/33 52/79/33
f 53/84/34 56/85/34 58/86/34 57/87/34
f 56/85/35 60/88/35 61/89/35 58/86/35
f 54/8/36 59/90/36 61/89/36 60/88/36
f 59/90/37 63/91/37 64/92/37 61/89/37
f 55/1/38 62/93/38 64/92/38 63/91/38
f 62/94/39 57/87/39 58/86/39 64/95/39
f 58/86/40 61/96/40 64/95/40
f 65/11/41 68/97/41 70/98/41 69/99/41
f 68/100/42 72/101/42 73/102/42 70/103/42
f 66/2/43 71/104/43 73/102/43 72/101/43
f 71/104/44 75/105/44 76/106/44 73/102/44
f 67/7/45 74/107/45 76/106/45 75/105/45
f 74/107/46 69/99/46 70/98/46 76/106/46
f 70/103/47 73/102/47 76/108/47
f 77/109/48 80/110/48 82/111/48 81/112/48
f 80/110/49 84/113/49 85/114/49 82/111/49
f 78/24/50 83/115/50 85/116/50 84/117/50
f 83/115/51 87/118/51 88/119/51 85/116/51
f 79/5/52 86/120/52 88/119/52 87/118/52
f 86/120/53 81/112/53 82/111/53 88/119/53
f 82/111/54 85/114/54 88/121/54
f 89/15/55 92/122/55 94/123/55 93/124/55
f 92/122/56 96/125/56 97/126/56 94/123/56
f 90/6/57 95/127/57 97/126/57 96/125/57
f 95/127/58 99/128/58 100/129/58 97/126/58
f 91/23/59 98/130/59 100/129/59 99/128/59
f 98/130/60 93/131/60 94/132/60 100/129/60
f 94/132/61 97/133/61 100/129/61
f 29/56/62 2/25/62 8/28/62 32/57/62
f 32/57/63 8/28/63 14/39/63 36/60/63
f 36/64/64 14/38/64 5/17/64 30/20/64
f 3/4/65 17/3/65 21/43/65 11/31/65
f 11/34/66 21/54/66 26/53/66 15/35/66
f 15/35/67 26/53/67 19/18/67 5/17/67
f 18/10/68 41/9/68 45/72/68 23/46/68
f 23/49/69 45/81/69 50/80/69 27/50/69
f 27/50/70 50/80/70 43/19/70 19/18/70
f 42/22/71 31/21/71 39/65/71 47/77/71
f 47/77/72 39/65/72 35/62/72 51/78/72
f 51/78/73 35/62/73 30/20/73 43/19/73
f 77/109/74 29/56/74 33/59/74 80/110/74
f 80/110/75 33/59/75 38/68/75 84/113/75
f 84/117/76 38/67/76 31/21/76 78/24/76
f 41/9/77 89/15/77 93/124/77 44/70/77
f 44/73/78 93/131/78 98/130/78 48/74/78
f 48/74/79 98/130/79 91/23/79 42/22/79
f 90/6/80 79/5/80 87/118/80 95/127/80
f 95/127/81 87/118/81 83/115/81 99/128/81
f 99/128/82 83/115/82 78/24/82 91/23/82
f 53/84/83 77/109/83 81/112/83 56/85/83
f 56/85/84 81/112/84 86/120/84 60/88/84
f 60/88/85 86/120/85 79/5/85 54/8/85
f 89/15/86 65/11/86 69/99/86 92/122/86
f 92/122/87 69/99/87 74/107/87 96/125/87
f 96/125/88 74/107/88 67/7/88 90/6/88
f 66/2/89 55/1/89 63/91/89 71/104/89
f 71/104/90 63/91/90 59/90/90 75/105/90
f 75/105/91 59/90/91 54/8/91 67/7/91
f 2/25/92 53/84/92 57/87/92 6/26/92
f 6/26/93 57/87/93 62/94/93 12/29/93
f 12/33/94 62/93/94 55/1/94 3/4/94
f 65/11/95 18/10/95 24/48/95 68/97/95
f 68/100/96 24/44/96 20/41/96 72/101/96
f 72/101/97 20/41/97 17/3/97 66/2/97
f 29/56/98 77/109/98 53/84/98 2/25/98
f 101/134/2 1/37/2 4/135/2 103/136/2
f 103/136/1 4/135/1 10/137/1 102/138/1
f 10/137/4 7/139/4 104/140/4 102/138/4
f 7/139/5 1/141/5 101/142/5 104/140/5
f 4/143/3 1/144/3 7/139/3 10/137/3
