<?xml version="1.0" encoding="UTF-8"?>
<!-- Generated by Pixelmator Pro 3.6.5 -->
<svg width="318" height="147" viewBox="0 0 318 147" xmlns="http://www.w3.org/2000/svg">
    <path id="Path-copy" fill="#8d479a" stroke="none" d="M 260.69165 68.176392 C 259.80835 68.076416 259.041626 67.542969 258.637451 66.755493 C 256.991577 63.468018 251.949951 52.105469 256.083374 43.251221 C 258.245728 38.609375 262.541626 35.496948 268.845947 34.001099 C 268.912476 33.972046 287.450195 27.871826 289.375244 16.713501 L 271.816772 15.188477 C 271.104248 15.125977 270.433472 14.775879 269.983398 14.217651 L 260.516724 2.517578 L 248.212402 12.667603 C 247.870728 12.946777 247.441528 13.071777 247.008179 13.042603 L 243.733154 12.759277 C 243.283203 12.721802 242.870605 12.500977 242.58313 12.155029 L 233.120605 0.546753 L 220.537231 10.309204 C 220.203857 10.563477 219.783081 10.675903 219.370483 10.650879 L 203.036987 9.234253 L 197.078613 18.892578 C 204.991211 18.938477 217.216309 19.988525 219.524658 25.842651 C 220.766357 29.005249 219.091309 32.638672 214.399658 36.947021 C 213.874634 37.426147 213.153809 37.680298 212.474609 37.663574 L 175.607544 36.155273 L 148.319946 52.455444 C 156.52832 54.038696 168.570068 57.530518 169.899292 64.509644 C 170.782593 69.143066 166.990845 73.96814 158.311646 79.255615 C 151.249146 83.563965 146.52417 84.189087 144.819946 84.255737 C 143.828247 84.255737 143.136475 83.90979 142.603271 83.205566 L 126.211426 61.255615 L 92.761108 61.197144 C 91.844482 61.197144 90.969482 60.705444 90.494385 59.917969 L 71.960938 29.113525 L 20.593994 83.463989 C 20.060547 84.03064 19.335693 84.355591 18.514771 84.289063 L -0.077148 83.259766 L -0.077148 86.143188 C 7.664673 89.264038 56.856689 110.580811 53.331787 146.518677 L 123.994751 146.518677 C 124.198975 145.822876 124.448975 145.060303 124.657227 144.397827 L 124.894775 143.656128 C 127.003174 137.010376 130.198975 131.23938 133.899048 127.397705 C 137.853271 123.289429 142.086548 121.664307 145.799072 122.856079 C 151.949219 124.80603 154.570068 134.476929 152.261597 146.518677 L 264.837524 146.518677 L 267.741699 134.55603 C 267.916748 133.839355 268.387451 133.222656 269.033447 132.86438 C 269.675049 132.510254 270.445923 132.42688 271.145874 132.660278 C 273.754272 133.522705 279.954224 135.714478 283.304321 138.118652 C 288.637695 135.235229 308.225342 122.364258 297.958618 93.093262 C 297.591919 92.051636 297.887817 90.922485 298.717041 90.205811 L 316.904541 74.622192 L 260.700073 68.180542 C 260.695801 68.180542 260.695801 68.180542 260.69165 68.176392"/>
</svg>
