<?xml version="1.0" encoding="UTF-8"?>
<!-- Generated by Pixelmator Pro 3.6.13 -->
<svg width="104" height="318" viewBox="0 0 104 318" xmlns="http://www.w3.org/2000/svg">
    <path id="Path-copy" fill="#a5a7aa" stroke="none" d="M 98.35498 305.017395 C 98.22998 304.604858 97.859131 304.329895 97.429932 304.329895 L 92.804932 304.329895 C 91.913208 304.329895 91.113281 303.829895 90.725708 303.025696 C 90.334106 302.225708 90.429932 301.292358 90.984009 300.588196 L 101.829956 286.729736 C 102.125854 286.350586 102.088257 285.800537 101.742432 285.446411 C 79.921509 263.308716 69.713013 242.658569 71.408936 224.070923 C 73.113037 205.408325 86.638184 194.058228 92.375732 190.041504 C 92.804932 189.741455 92.788208 189.312256 92.763184 189.137329 C 92.709106 188.762329 92.459106 188.466431 92.096558 188.345581 C 77.488159 183.52478 76.696411 165.316284 76.800659 159.849609 C 76.825562 158.578735 77.842285 157.582886 79.11731 157.582886 L 87.854858 157.582886 C 88.275757 157.582886 88.646484 157.312012 88.775757 156.903687 L 90.834106 150.491211 C 90.925781 150.203613 90.879883 149.895386 90.709106 149.645264 C 90.534058 149.395386 90.259033 149.241211 89.954834 149.224487 L 63.717163 147.882813 C 62.488037 147.816162 61.525513 146.799438 61.525513 145.570313 L 61.525513 108.890869 C 61.525513 107.611694 62.567139 106.574219 63.850464 106.574219 C 64.458862 106.574219 65.037964 106.815796 65.475586 107.257446 L 85.500732 127.278442 C 85.734009 127.515991 85.99646 127.56604 86.171509 127.56604 C 86.442383 127.56604 86.717407 127.449341 86.904907 127.25354 C 87.029907 127.120117 87.17981 126.890991 87.167358 126.545166 C 86.458984 108.328369 80.175659 90.024048 68.479736 72.136353 C 67.846436 71.165527 68.038086 69.894653 68.933838 69.115479 C 72.800537 65.765503 75.567261 61.398804 76.93811 56.494629 C 77.150635 55.740479 77.704834 55.152954 78.425659 54.919556 L 97.267456 48.686157 C 97.755005 48.523682 97.929932 48.102905 97.929932 47.765381 C 97.929932 47.423706 97.755005 47.00708 97.267456 46.844482 L 77.038086 40.156982 C 76.425659 39.952759 75.942261 39.506958 75.667236 38.902832 C 72.896362 32.702759 67.663086 27.736084 61.304688 25.27356 C 60.654663 25.02356 60.158813 24.506836 59.942139 23.852661 L 52.854614 2.435791 C 52.692139 1.940063 52.27124 1.765015 51.933716 1.765015 C 51.596191 1.765015 51.175415 1.940063 51.012939 2.435791 L 43.929565 23.852661 C 43.70874 24.506836 43.212891 25.02356 42.562866 25.27356 C 36.204468 27.736084 30.971069 32.702759 28.200195 38.902832 C 27.937744 39.494507 27.437744 39.952759 26.829346 40.156982 L 6.600098 46.844482 C 6.108398 47.00708 5.93335 47.423706 5.93335 47.765381 C 5.93335 48.102905 6.108398 48.523682 6.600098 48.686157 L 25.441895 54.919556 C 26.16687 55.157104 26.721069 55.744629 26.929443 56.498779 C 28.300293 61.398804 31.071045 65.765503 34.933594 69.115479 C 35.829468 69.890503 36.021118 71.161377 35.387817 72.136353 C 23.696045 90.019897 17.408447 108.328369 16.700195 126.545166 C 16.687622 126.890991 16.837646 127.120117 16.962646 127.25354 C 17.150146 127.449341 17.425171 127.56604 17.696045 127.56604 C 17.870972 127.56604 18.129272 127.515991 18.366821 127.278442 L 38.391968 107.257446 C 38.833618 106.815796 39.408691 106.574219 40.016968 106.574219 C 41.300293 106.574219 42.342041 107.611694 42.342041 108.890869 L 42.342041 145.570313 C 42.342041 146.799438 41.379517 147.816162 40.150269 147.882813 L 13.912598 149.224487 C 13.608398 149.241211 13.337646 149.391113 13.162598 149.641113 C 12.991821 149.891113 12.945923 150.199463 13.037598 150.491211 L 15.091797 156.907837 C 15.220947 157.312012 15.591797 157.582886 16.016846 157.582886 L 24.750244 157.582886 C 26.025269 157.582886 27.046021 158.578735 27.066895 159.849609 C 27.171021 165.316284 26.371094 183.528931 11.775146 188.345581 C 11.408447 188.466431 11.158447 188.762329 11.100098 189.137329 C 11.075073 189.312256 11.062622 189.741455 11.491821 190.041504 C 17.22937 194.058228 30.754395 205.408325 32.458618 224.070923 C 34.154419 242.658569 23.946045 263.308716 2.125 285.450562 C 1.779175 285.800537 1.741699 286.350586 2.037476 286.729736 L 12.883423 300.588196 C 13.433472 301.292358 13.533447 302.225708 13.141724 303.025696 C 12.754272 303.829895 11.954224 304.329895 11.062622 304.329895 L 6.441772 304.329895 C 6.012573 304.329895 5.637573 304.604858 5.516724 305.017395 L 1.912476 316.817444 C 1.820923 317.113281 1.875 317.425781 2.05835 317.675842 C 2.24585 317.925842 2.529175 318.067505 2.841675 318.067505 L 49.533691 318.067505 L 54.33374 318.067505 L 101.025757 318.067505 C 101.338257 318.067505 101.625854 317.925842 101.809204 317.675842 C 101.996704 317.425781 102.046631 317.113281 101.959106 316.817444 Z"/>
</svg>
