<?xml version="1.0" encoding="UTF-8"?>
<!-- Generated by Pixelmator Pro 3.6.13 -->
<svg width="314" height="125" viewBox="0 0 314 125" xmlns="http://www.w3.org/2000/svg">
    <path id="Path-copy" fill="#0096aa" stroke="none" d="M 311.152649 68.389526 C 310.152649 68.35202 309.023499 68.335358 307.790161 68.335358 C 304.565125 68.335358 300.610901 68.439514 296.240051 68.547852 C 290.810852 68.689514 284.735779 68.843689 278.606567 68.843689 C 273.727356 68.843689 269.477356 68.747864 265.618958 68.543701 C 264.63562 68.489532 263.789795 67.893677 263.410645 66.981171 C 263.023132 66.064514 263.189758 65.035339 263.843933 64.293671 C 270.768982 56.406097 278.239929 51.918549 283.18158 48.951874 C 284.652466 48.072693 285.935791 47.301849 286.735779 46.822693 C 287.098328 46.051849 286.773315 42.772644 286.285828 41.672638 L 266.831482 42.035156 C 266.00647 41.951813 265.264832 41.472656 264.848145 40.74765 C 264.439819 40.039307 264.393982 39.168457 264.731445 38.422638 C 266.864807 33.739258 269.656494 29.751709 271.014832 27.76004 L 263.310608 26.735046 C 261.939758 26.664185 260.864746 25.539185 260.864746 24.164185 L 260.843933 1.376495 L 242.860474 1.384827 L 242.922974 9.351563 C 242.927124 9.976563 242.689636 10.568237 242.247925 11.009918 C 241.810425 11.451569 241.227112 11.701569 240.543762 11.701569 L 232.960388 11.530762 L 232.956238 22.689178 C 232.956238 23.968353 231.918701 25.01001 230.452026 25.01001 C 230.447876 25.01001 220.651978 24.164185 220.651978 24.164185 L 210.772705 35.247589 C 210.285217 35.789276 209.589355 36.105927 208.614349 36.105927 C 208.597687 36.105927 171.639069 32.368408 171.639069 32.368408 L 177.068268 49.147705 C 177.976624 49.022705 179.418304 48.86853 181.126648 48.86853 C 187.380859 48.86853 197.99762 50.881042 198.789276 64.364502 C 199.043457 68.681183 197.947601 72.168732 195.530914 74.731232 C 191.730896 78.764618 185.422516 79.614624 180.801636 79.614624 C 177.130768 79.614624 174.197418 79.085449 173.876587 79.022949 L 163.397339 77.852112 C 162.651489 77.772919 161.976501 77.364594 161.543152 76.722931 L 153.41394 64.552002 L 136.451294 74.34375 C 136.084625 74.552063 135.6763 74.664581 135.026276 74.664581 C 134.980469 74.664581 134.934601 74.664581 134.884613 74.664581 L 121.942841 73.218719 C 121.192841 73.127075 120.517822 72.718719 120.088654 72.085388 L 112.921936 61.360291 L 97.901001 70.022858 C 97.530151 70.239532 97.117645 70.356201 96.455139 70.356201 C 96.413483 70.356201 80.117523 68.543701 80.117523 68.543701 C 79.367523 68.460358 78.671692 68.03537 78.263336 67.41452 L 70.300781 55.497772 L 53.692291 65.081177 C 53.30896 65.306183 52.858948 65.427002 52.404816 65.427002 L 52.12146 65.422821 L 3.316925 55.318604 C 2.558594 56.206085 1.316895 59.410278 1.333557 60.485291 C 22.446228 81.722961 44.12558 124.548309 44.342255 124.956635 L 139.626312 124.906647 C 134.605438 114.527374 135.559631 106.048157 142.188843 102.227295 C 143.776367 101.306458 145.472198 100.839783 147.218048 100.839783 C 151.218079 100.839783 157.422302 103.331451 164.272339 115.194061 C 166.105682 118.377411 167.614044 121.664948 168.747375 124.956635 L 240.885437 124.956635 L 240.885437 124.931641 C 240.485474 118.573242 240.935425 112.12738 242.218811 105.773163 C 242.385437 104.981476 242.893799 104.327301 243.664612 103.956482 L 311.519348 74.064575 C 311.923523 72.997894 311.765137 69.35202 311.152649 68.389526"/>
</svg>
